<svg version="1.1" viewBox="0.0 0.0 300.0 70.0" fill="none" stroke="none" stroke-linecap="square" stroke-miterlimit="10" xmlns:xlink="http://www.w3.org/1999/xlink" xmlns="http://www.w3.org/2000/svg"><clipPath id="p.0"><path d="m0 0l300.0 0l0 70.0l-300.0 0l0 -70.0z" clip-rule="nonzero"/></clipPath><g clip-path="url(#p.0)"><path fill="#000000" fill-opacity="0.0" d="m0 0l300.0 0l0 70.0l-300.0 0z" fill-rule="evenodd"/><path fill="#8b2233" d="m0.22309712 11.750887l0 0c0 -6.3666224 5.161167 -11.52779 11.52779 -11.52779l276.157 0c3.057373 0 5.989502 1.2145315 8.151398 3.3764114c2.1618652 2.1618798 3.3764038 5.094019 3.3764038 8.151379l0 46.10977c0 6.3666267 -5.1611633 11.52779 -11.5278015 11.52779l-276.157 0c-6.3666224 0 -11.52779 -5.1611633 -11.52779 -11.52779z" fill-rule="evenodd"/><path stroke="#a2a9ad" stroke-width="1.0" stroke-linejoin="round" stroke-linecap="butt" d="m0.22309712 11.750887l0 0c0 -6.3666224 5.161167 -11.52779 11.52779 -11.52779l276.157 0c3.057373 0 5.989502 1.2145315 8.151398 3.3764114c2.1618652 2.1618798 3.3764038 5.094019 3.3764038 8.151379l0 46.10977c0 6.3666267 -5.1611633 11.52779 -11.5278015 11.52779l-276.157 0c-6.3666224 0 -11.52779 -5.1611633 -11.52779 -11.52779z" fill-rule="evenodd"/><path fill="#000000" fill-opacity="0.0" d="m0.22309712 0.22309712l215.02362 0l0 70.01575l-215.02362 0z" fill-rule="evenodd"/><path fill="#fcb426" d="m24.348097 38.594097l0 10.28125q0 3.015625 0.359375 3.796875q0.375 0.78125 1.3125 1.25q0.953125 0.453125 3.46875 0.453125l0 1.015625l-18.84375 0l0 -1.015625q2.578125 0 3.484375 -0.46875q0.921875 -0.484375 1.28125 -1.25q0.375 -0.765625 0.375 -3.78125l0 -24.062502q0 -3.0 -0.375 -3.78125q-0.359375 -0.78125 -1.296875 -1.234375q-0.921875 -0.46875 -3.46875 -0.46875l0 -1.015625l16.15625 0q7.984377 0 11.453127 2.84375q3.484375 2.84375 3.484375 7.109375q0 3.609375 -2.25 6.187502q-2.234375 2.5625 -6.171875 3.484375q-2.656252 0.65625 -8.968752 0.65625zm0 -18.156252l0 16.031252q0.90625 0.046875 1.359375 0.046875q3.34375 0 5.140625 -1.96875q1.8125019 -1.984375 1.8125019 -6.140627q0 -4.140625 -1.8125019 -6.046875q-1.796875 -1.921875 -5.375 -1.921875l-1.125 0zm27.128908 -3.0q1.765625 0 3.0 1.25q1.234375 1.234375 1.234375 2.984375q0 1.75 -1.25 2.984375q-1.234375 1.234375 -2.984375 1.234375q-1.75 0 -2.984375 -1.234375q-1.234375 -1.234375 -1.234375 -2.984375q0 -1.75 1.234375 -2.984375q1.234375 -1.25 2.984375 -1.25zm3.828125 12.390625l0 20.250002q0 2.71875 0.625 3.46875q0.625 0.75 2.453125 0.859375l0 0.984375l-13.796875 0l0 -0.984375q1.6875 -0.0625 2.515625 -0.984375q0.546875 -0.625 0.546875 -3.34375l0 -14.921875q0 -2.703125 -0.640625 -3.453127q-0.625 -0.765625 -2.421875 -0.875l0 -1.0l10.71875 0zm17.636719 -0.765625q3.328125 0 6.203125 1.71875q2.875 1.7187519 4.359375 4.890627q1.484375 3.171875 1.484375 6.953125q0 5.4375 -2.75 9.09375q-3.34375 4.4375 -9.21875 4.4375q-5.765625 0 -8.890625 -4.046875q-3.109375 -4.046875 -3.109375 -9.375q0 -5.5 3.171875 -9.578125q3.1875 -4.093752 8.75 -4.093752zm0.109375 1.9375q-1.40625 0 -2.40625 1.0625019q-0.984375 1.046875 -1.3125 4.15625q-0.3125 3.09375 -0.3125 8.609375q0 2.9375 0.390625 5.46875q0.296875 1.953125 1.28125 2.96875q0.984375 1.0 2.25 1.0q1.21875 0 2.046875 -0.6875q1.0625 -0.921875 1.421875 -2.59375q0.546875 -2.59375 0.546875 -10.5q0 -4.640625 -0.53125 -6.375q-0.515625 -1.75 -1.515625 -2.531252q-0.71875 -0.578125 -1.859375 -0.578125zm26.265625 -1.171875l0 3.296877q1.96875 -2.125002 3.765625 -3.093752q1.8125 -0.96875 3.890625 -0.96875q2.5 0 4.140625 1.375q1.640625 1.375 2.1875 3.437502q0.4375 1.546875 0.4375 5.984375l0 9.953125q0 2.953125 0.53125 3.6875q0.53125 0.71875 2.21875 0.90625l0 0.984375l-12.921875 0l0 -0.984375q1.4375 -0.1875 2.078125 -1.203125q0.4375 -0.6875 0.4375 -3.390625l0 -11.375q0 -3.140625 -0.25 -3.953125q-0.25 -0.828125 -0.84375 -1.28125q-0.578125 -0.453125 -1.296875 -0.453125q-2.34375 0 -4.375 3.359375l0 13.703125q0 2.875 0.53125 3.640625q0.546875 0.765625 1.984375 0.953125l0 0.984375l-12.921875 0l0 -0.984375q1.609375 -0.171875 2.296875 -1.046875q0.453125 -0.59375 0.453125 -3.546875l0 -14.4375q0 -2.90625 -0.53125 -3.609377q-0.53125 -0.71875 -2.21875 -0.9375l0 -1.0l10.40625 0zm42.36328 11.859377l-14.03125 0q0.25 5.09375 2.703125 8.046875q1.890625 2.265625 4.546875 2.265625q1.640625 0 2.96875 -0.90625q1.34375 -0.921875 2.875 -3.3125l0.9375 0.609375q-2.078125 4.234375 -4.59375 6.0q-2.515625 1.765625 -5.828125 1.765625q-5.6875 0 -8.609375 -4.375q-2.359375 -3.53125 -2.359375 -8.75q0 -6.40625 3.453125 -10.1875q3.46875 -3.781252 8.125 -3.781252q3.875 0 6.734375 3.187502q2.859375 3.171875 3.078125 9.4375zm-6.734375 -1.828125q0 -4.40625 -0.484375 -6.046875q-0.46875 -1.640625 -1.484375 -2.484377q-0.5625 -0.5 -1.53125 -0.5q-1.421875 0 -2.3125 1.4062519q-1.625 2.421875 -1.625 6.671875l0 0.953125l7.4375 0zm31.589844 1.828125l-14.03125 0q0.25 5.09375 2.703125 8.046875q1.890625 2.265625 4.546875 2.265625q1.640625 0 2.96875 -0.90625q1.34375 -0.921875 2.875 -3.3125l0.9375 0.609375q-2.078125 4.234375 -4.59375 6.0q-2.515625 1.765625 -5.828125 1.765625q-5.6875 0 -8.609375 -4.375q-2.359375 -3.53125 -2.359375 -8.75q0 -6.40625 3.453125 -10.1875q3.46875 -3.781252 8.125 -3.781252q3.875 0 6.734375 3.187502q2.859375 3.171875 3.078125 9.4375zm-6.734375 -1.828125q0 -4.40625 -0.484375 -6.046875q-0.46875 -1.640625 -1.484375 -2.484377q-0.5625 -0.5 -1.53125 -0.5q-1.421875 0 -2.3125 1.4062519q-1.625 2.421875 -1.625 6.671875l0 0.953125l7.4375 0zm20.542969 -10.031252l0 5.796877q2.546875 -3.968752 4.453125 -5.265627q1.921875 -1.296875 3.6875 -1.296875q1.53125 0 2.453125 0.9375q0.921875 0.9375 0.921875 2.671877q0 1.828125 -0.890625 2.84375q-0.890625 1.0 -2.15625 1.0q-1.4375 0 -2.515625 -0.921875q-1.0625 -0.9375 -1.25 -1.046875q-0.28125 -0.15625 -0.625 -0.15625q-0.796875 0 -1.515625 0.59375q-1.109375 0.9375 -1.6875 2.65625q-0.875 2.65625 -0.875 5.859375l0 5.875l0.03125 1.53125q0 1.5625 0.1875 2.0q0.328125 0.734375 0.96875 1.078125q0.640625 0.34375 2.171875 0.421875l0 0.984375l-13.8125 0l0 -0.984375q1.671875 -0.140625 2.25 -0.921875q0.59375 -0.78125 0.59375 -4.109375l0 -14.140625q0 -2.1875 -0.21875 -2.78125q-0.265625 -0.7656269 -0.796875 -1.1250019q-0.515625 -0.359375 -1.828125 -0.5l0 -1.0l10.453125 0z" fill-rule="nonzero"/><path fill="#fcb426" d="m221.0 16.002625l0 0c0 -5.386588 4.366699 -9.753281 9.753281 -9.753281l2.4094543 0l0 0l18.244095 0l32.816254 0c2.586731 0 5.0675354 1.027575 6.896637 2.8566694c1.829071 1.8290949 2.856659 4.3098803 2.856659 6.896611l0 24.383202l0 0l0 14.629921l0 0c0 5.386589 -4.366699 9.753281 -9.753296 9.753281l-32.816254 0l-18.244095 0l0 0l-2.4094543 0l0 0c-5.3865814 0 -9.753281 -4.3666916 -9.753281 -9.753281l0 0l-34.750626 8.984337l34.750626 -23.614258z" fill-rule="evenodd"/><path fill="#000000" fill-opacity="0.0" d="m221.0 -0.007874016l72.97638 0l0 70.01575l-72.97638 0z" fill-rule="evenodd"/><path fill="#8b2233" d="m245.39062 20.206875l0 15.234375l1.078125 0q2.453125 0 4.015625 -0.734375q1.5625 -0.734375 2.640625 -2.484375q1.078125 -1.75 1.40625 -4.734375l0.953125 0l0 18.625l-0.953125 0q-0.515625 -5.28125 -2.828125 -6.953125q-2.3125 -1.6875 -5.234375 -1.6875l-1.078125 0l0 11.34375q0 2.84375 0.3125 3.5625q0.328125 0.703125 1.234375 1.234375q0.921875 0.53125 2.484375 0.53125l1.21875 0l0 1.015625l-19.375 0l0 -1.015625l1.21875 0q1.625 0 2.609375 -0.578125q0.703125 -0.375 1.09375 -1.3125q0.296875 -0.65625 0.296875 -3.4375l0 -24.390625q0 -2.84375 -0.3125 -3.546875q-0.296875 -0.71875 -1.21875 -1.25q-0.90625 -0.53125 -2.46875 -0.53125l-1.21875 0l0 -1.015625l31.28125 0l0 10.640625l-1.125 0q-0.390625 -3.75 -1.96875 -5.546875q-1.5625 -1.8125 -4.546875 -2.546875q-1.640625 -0.421875 -6.0625 -0.421875l-3.453125 0zm26.863281 -3.0q1.765625 0 3.0 1.25q1.234375 1.234375 1.234375 2.984375q0 1.75 -1.25 2.984375q-1.234375 1.234375 -2.984375 1.234375q-1.75 0 -2.984375 -1.234375q-1.234375 -1.234375 -1.234375 -2.984375q0 -1.75 1.234375 -2.984375q1.234375 -1.25 2.984375 -1.25zm3.828125 12.390625l0 20.25q0 2.71875 0.625 3.46875q0.625 0.75 2.453125 0.859375l0 0.984375l-13.796875 0l0 -0.984375q1.6875 -0.0625 2.515625 -0.984375q0.546875 -0.625 0.546875 -3.34375l0 -14.921875q0 -2.703125 -0.640625 -3.453125q-0.625 -0.765625 -2.421875 -0.875l0 -1.0l10.71875 0z" fill-rule="nonzero"/></g></svg>