<svg version="1.1" viewBox="0.0 0.0 300.0 70.0" fill="none" stroke="none" stroke-linecap="square" 
stroke-miterlimit="10" xmlns:xlink="http://www.w3.org/1999/xlink" xmlns="http://www.w3.org/2000/svg">
<clipPath id="p.0"><path d="m0 0l300.0 0l0 70.0l-300.0 0l0 -70.0z" clip-rule="nonzero"/></clipPath>
<g clip-path="url(#p.0)"><path fill="#000000" fill-opacity="0.0" d="m0 0l300.0 0l0 70.0l-300.0 0z" fill-rule="evenodd"/>
<path fill="#8b2233" d="m0.22309712 11.750887l0 0c0 -6.3666224 5.161167 -11.52779 11.52779 -11.52779l276.157 0c3.057373 
0 5.989502 1.2145315 8.151398 3.3764114c2.1618652 2.1618798 3.3764038 5.094019 3.3764038 8.151379l0 46.10977c0 6.3666267 
-5.1611633 11.52779 -11.5278015 11.52779l-276.157 0c-6.3666224 0 -11.52779 -5.1611633 -11.52779 -11.52779z" fill-rule="evenodd"/>
<path stroke="#a2a9ad" stroke-width="1.0" stroke-linejoin="round" stroke-linecap="butt" d="m0.22309712 11.750887l0 0c0 -6.3666224 
5.161167 -11.52779 11.52779 -11.52779l276.157 0c3.057373 0 5.989502 1.2145315 8.151398 3.3764114c2.1618652 2.1618798 3.3764038 
5.094019 3.3764038 8.151379l0 46.10977c0 6.3666267 -5.1611633 11.52779 -11.5278015 11.52779l-276.157 0c-6.3666224 0 -11.52779 
-5.1611633 -11.52779 -11.52779z" fill-rule="evenodd"/><path fill="#000000" fill-opacity="0.0" d="m0.22309712 0.22309712l220.7874 
0l0 70.01575l-220.7874 0z" fill-rule="evenodd"/><path fill="#fcb426" d="m32.045395 15.895346q6.109375 0 9.671875 3.4375q3.5625 
3.421875 3.5625 9.078125q0 5.625002 -3.5625 9.078127q-3.5625 3.4375 -9.671875 3.4375l-9.281252 0l0 13.984375l-8.59375 0l0 
-39.015625l17.875002 0zm-2.375002 18.359377q3.687502 0 5.484377 -1.390625q1.796875 -1.3906269 1.796875 -4.453127q0 -2.984375 
-1.734375 -4.40625q-1.734375 -1.4375 -5.515627 -1.4375l-6.9375 0l0 11.687502l6.90625 0zm28.18056 -18.359377l0 6.375l-7.765625 
0l0 -6.375l7.765625 0zm0 10.75l0 28.265627l-7.765625 0l0 -28.265627l7.765625 0zm19.841064 -0.75q6.640625 0 10.640625 4.109375q4.0 
4.093752 4.0 10.812502q0 6.75 -4.046875 10.8125q-4.03125 4.0625 -10.59375 4.0625q-6.578125 0 -10.59375 -4.078125q-4.015625 -4.09375 
-4.015625 -10.796875q0 -6.703125 3.953125 -10.812502q3.953125 -4.109375 10.65625 -4.109375zm-6.84375 14.921877q0 4.453125 1.828125 
6.734375q1.828125 2.28125 5.015625 2.28125q3.296875 0 5.078125 -2.359375q1.796875 -2.359375 1.796875 -6.65625q0 -4.21875 -1.734375 
-6.640625q-1.734375 -2.437502 -5.203125 -2.437502q-3.125 0 -4.953125 2.265627q-1.828125 2.25 -1.828125 6.8125zm42.698715 -14.921877q5.421875 
0 7.859375 2.75q2.453125 2.734375 2.453125 8.593752l0 17.671875l-7.765625 0l0 -16.203125q0 -3.3125 -1.140625 -5.0q-1.140625 -1.6875 
-3.828125 -1.6875q-3.234375 0 -4.640625 1.921875q-1.390625 1.90625 -1.390625 5.890625l0 15.078125l-7.734375 0l0 -28.265627l7.359375 0l0 
3.953125l0.15625 0q1.421875 -2.265625 3.6875 -3.484375q2.265625 -1.21875 4.984375 -1.21875zm29.258148 0q6.265625 0 10.015625 4.3125q3.75 
4.312502 3.75 11.015627l-0.046875 1.4375l-20.390625 0q0.15625 3.65625 1.90625 5.421875q1.75 1.75 5.0 1.75q2.109375 0 3.890625 -1.078125q1.796875 
-1.078125 2.28125 -2.59375l6.828125 0q-1.578125 4.796875 -4.859375 7.171875q-3.28125 2.359375 -8.375 2.359375q-6.546875 0 -10.5 
-4.140625q-3.9375 -4.140625 -3.9375 -10.734375q0 -6.328125 4.03125 -10.625002q4.046875 -4.296875 10.40625 -4.296875zm-6.671875 
11.859377l12.625 0q-0.5625 -3.125 -2.015625 -4.5625q-1.453125 -1.4531269 -4.203125 -1.4531269q-2.828125 0 -4.484375 1.6093769q-1.65625 
1.59375 -1.921875 4.40625zm38.05652 -11.859377q6.265625 0 10.015625 4.3125q3.75 4.312502 3.75 11.015627l-0.046875 1.4375l-20.390625 
0q0.15625 3.65625 1.90625 5.421875q1.75 1.75 5.0 1.75q2.109375 0 3.890625 -1.078125q1.796875 -1.078125 2.28125 -2.59375l6.828125 
0q-1.578125 4.796875 -4.859375 7.171875q-3.28125 2.359375 -8.375 2.359375q-6.546875 0 -10.5 -4.140625q-3.9375 -4.140625 -3.9375 
-10.734375q0 -6.328125 4.03125 -10.625002q4.046875 -4.296875 10.40625 -4.296875zm-6.671875 11.859377l12.625 0q-0.5625 -3.125 -2.015625 
-4.5625q-1.453125 -1.4531269 -4.203125 -1.4531269q-2.828125 0 -4.484375 1.6093769q-1.65625 1.59375 -1.921875 4.40625zm41.46277 
-11.859377q0.515625 0 0.9375 0.078125q0.4375 0.0625 0.796875 0.1875l0 7.218752q-0.65625 -0.140625 -1.296875 -0.203125q-0.625 -0.0625 
-1.46875 -0.0625q-3.921875 0 -5.8125 2.40625q-1.875 2.390625 -1.875 6.421875l0 12.96875l-7.734375 0l0 -28.265627l7.359375 
0l0 5.265625l0.109375 0q1.21875 -2.78125 3.65625 -4.390625q2.453125 -1.625 5.328125 -1.625z" fill-rule="nonzero"/>
<path fill="#fcb426" d="m221.0 16.00282l0 0c0 -5.386695 4.3667755 -9.753475 9.753479 -9.753475l53.46942 0c2.586792 0 5.067627 
1.0275955 6.896759 2.8567266c1.8291321 1.8291321 2.85672 4.309967 2.85672 6.8967485l0 39.012733c0 5.386696 -4.366791 9.753475 
-9.753479 9.753475l-53.46942 0l0 0c-5.3867035 0 -9.753479 -4.3667793 -9.753479 -9.753475z" fill-rule="evenodd"/>
<path fill="#000000" fill-opacity="0.0" d="m221.0 -0.007874016l72.97638 0l0 70.01575l-72.97638 0z" fill-rule="evenodd"/>
<path fill="#8b2233" d="m265.4464 15.664374l0 7.203126l-18.843765 0l0 9.015625l16.32814 0l0 6.671875l-16.32814 0l0 16.125l-8.59375 
0l0 -39.015625l27.437515 0zm12.133118 0l0 6.375001l-7.765625 0l0 -6.375001l7.765625 0zm0 10.750001l0 28.265625l-7.765625 0l0 
-28.265625l7.765625 0z" fill-rule="nonzero"/></g></svg>